name C:\Users\u0101727\Documents\MyRepositories\predictivesimulations\OpenSimModel\subject1\EMG\EMG_gait_60.mot
datacolumns 25
datarows 20
range 2.30600000 2.32500000
endheader
time	HamL_r	TA_r	PerL_r	GL_r	HamM_r	Sol_r	VL_r	VM_r	PerB_l	TA_l	PerL_l	GL_l	GM_l	Sol_l	VL_l	VM_l	AddL_l	RF_l	TFL_l	GluMed_l	HamL_l	HamM_l	GluMed_r	RF_r	
          2.30600000	          0.00523630	          0.00241907	          0.00416717	          0.00419005	          0.00380771	          0.00915094	          0.00429499	          0.00298042	          0.01831501	          0.09919672	          0.03388030	          0.01638284	          0.01596362	          0.01997514	          0.03638949	          0.03257848	          0.01596432	          0.01258295	          0.02103808	          0.02520976	          0.02265313	          0.01051857	          0.00561627	          0.00567002	
          2.30700000	          0.00523491	          0.00242441	          0.00418007	          0.00418593	          0.00379095	          0.00882791	          0.00429847	          0.00298066	          0.01848984	          0.09940757	          0.03404567	          0.01664432	          0.01619969	          0.02033208	          0.03642175	          0.03261820	          0.01609730	          0.01278377	          0.02188530	          0.02582217	          0.02320706	          0.01057883	          0.00561824	          0.00569184	
          2.30800000	          0.00523253	          0.00243105	          0.00419186	          0.00417986	          0.00377569	          0.00852313	          0.00430191	          0.00298426	          0.01867194	          0.09967635	          0.03420131	          0.01690457	          0.01644118	          0.02070767	          0.03645330	          0.03268016	          0.01623979	          0.01300291	          0.02276106	          0.02645085	          0.02377120	          0.01063873	          0.00561966	          0.00571363	
          2.30900000	          0.00522920	          0.00243892	          0.00420249	          0.00417212	          0.00376194	          0.00823653	          0.00430527	          0.00299123	          0.01886094	          0.10000491	          0.03434590	          0.01716279	          0.01668720	          0.02110166	          0.03648620	          0.03276561	          0.01639270	          0.01324082	          0.02366485	          0.02709646	          0.02434523	          0.01069787	          0.00562038	          0.00573527	
          2.31000000	          0.00522497	          0.00244790	          0.00421194	          0.00416293	          0.00374973	          0.00796798	          0.00430847	          0.00300157	          0.01905624	          0.10039434	          0.03447796	          0.01741809	          0.01693669	          0.02151360	          0.03652231	          0.03287558	          0.01655673	          0.01349786	          0.02459590	          0.02775994	          0.02492906	          0.01075585	          0.00562025	          0.00575657	
          2.31100000	          0.00521992	          0.00245787	          0.00422021	          0.00415251	          0.00373913	          0.00771723	          0.00431141	          0.00301528	          0.01925708	          0.10084485	          0.03459575	          0.01766945	          0.01718844	          0.02194281	          0.03656331	          0.03301080	          0.01673240	          0.01377432	          0.02555324	          0.02844225	          0.02552254	          0.01081232	          0.00561910	          0.00577739	
          2.31200000	          0.00521416	          0.00246870	          0.00422732	          0.00414105	          0.00373017	          0.00748401	          0.00431399	          0.00303234	          0.01946250	          0.10135563	          0.03469743	          0.01791585	          0.01744111	          0.02238835	          0.03661080	          0.03317169	          0.01692000	          0.01407037	          0.02653562	          0.02914408	          0.02612534	          0.01086697	          0.00561675	          0.00579754	
          2.31300000	          0.00520784	          0.00248027	          0.00423332	          0.00412872	          0.00372288	          0.00726795	          0.00431607	          0.00305271	          0.01967144	          0.10192463	          0.03478140	          0.01815635	          0.01769328	          0.02284896	          0.03666655	          0.03335844	          0.01711963	          0.01438609	          0.02754150	          0.02986576	          0.02673695	          0.01091960	          0.00561306	          0.00581690	
          2.31400000	          0.00520110	          0.00249254	          0.00423823	          0.00411572	          0.00371724	          0.00706865	          0.00431755	          0.00307635	          0.01988262	          0.10254847	          0.03484637	          0.01839014	          0.01794350	          0.02332309	          0.03673249	          0.03357113	          0.01733122	          0.01472142	          0.02856906	          0.03060729	          0.02735664	          0.01097018	          0.00560793	          0.00583535	
          2.31500000	          0.00519405	          0.00250555	          0.00424206	          0.00410218	          0.00371321	          0.00688566	          0.00431840	          0.00310319	          0.02009457	          0.10322238	          0.03489145	          0.01861648	          0.01819026	          0.02380891	          0.03681058	          0.03380982	          0.01755452	          0.01507617	          0.02961631	          0.03136834	          0.02798346	          0.01101869	          0.00560126	          0.00585285	
          2.31600000	          0.00518673	          0.00251936	          0.00424482	          0.00408825	          0.00371071	          0.00671854	          0.00431863	          0.00313310	          0.02030564	          0.10394050	          0.03491596	          0.01883451	          0.01843207	          0.02430435	          0.03690257	          0.03407468	          0.01778912	          0.01545001	          0.03068109	          0.03214832	          0.02861628	          0.01106506	          0.00559304	          0.00586938	
          2.31700000	          0.00517916	          0.00253407	          0.00424655	          0.00407411	          0.00370964	          0.00656689	          0.00431829	          0.00316596	          0.02051396	          0.10469611	          0.03491938	          0.01904330	          0.01866769	          0.02480721	          0.03700982	          0.03436585	          0.01803439	          0.01584253	          0.03176115	          0.03294632	          0.02925372	          0.01110915	          0.00558333	          0.00588498	
          2.31800000	          0.00517129	          0.00254973	          0.00424734	          0.00405997	          0.00370990	          0.00643034	          0.00431747	          0.00320164	          0.02071754	          0.10548205	          0.03490134	          0.01924182	          0.01889609	          0.02531520	          0.03713321	          0.03468336	          0.01828949	          0.01625325	          0.03285406	          0.03376106	          0.02989420	          0.01115078	          0.00557220	          0.00589978	
          2.31900000	          0.00516306	          0.00256641	          0.00424730	          0.00404611	          0.00371135	          0.00630852	          0.00431623	          0.00324004	          0.02091435	          0.10629112	          0.03486168	          0.01942882	          0.01911634	          0.02582599	          0.03727319	          0.03502716	          0.01855342	          0.01668163	          0.03395713	          0.03459092	          0.03053588	          0.01118986	          0.00555969	          0.00591392	
          2.32000000	          0.00515444	          0.00258415	          0.00424651	          0.00403283	          0.00371386	          0.00620111	          0.00431464	          0.00328110	          0.02110247	          0.10711654	          0.03480051	          0.01960291	          0.01932757	          0.02633716	          0.03742991	          0.03539712	          0.01882521	          0.01712707	          0.03506732	          0.03543389	          0.03117678	          0.01122653	          0.00554579	          0.00592760	
          2.32100000	          0.00514544	          0.00260298	          0.00424503	          0.00402043	          0.00371726	          0.00610779	          0.00431277	          0.00332478	          0.02128007	          0.10795224	          0.03471803	          0.01976257	          0.01952878	          0.02684627	          0.03760344	          0.03579314	          0.01910401	          0.01758885	          0.03618128	          0.03628758	          0.03181496	          0.01126110	          0.00553043	          0.00594101	
          2.32200000	          0.00513604	          0.00262293	          0.00424286	          0.00400919	          0.00372138	          0.00602832	          0.00431072	          0.00337108	          0.02144557	          0.10879250	          0.03461425	          0.01990633	          0.01971884	          0.02735093	          0.03779389	          0.03621527	          0.01938914	          0.01806613	          0.03729540	          0.03714915	          0.03244866	          0.01129403	          0.00551349	          0.00595431	
          2.32300000	          0.00512625	          0.00264404	          0.00423999	          0.00399938	          0.00372608	          0.00596244	          0.00430858	          0.00341992	          0.02159773	          0.10963120	          0.03448885	          0.02003286	          0.01989636	          0.02784873	          0.03800149	          0.03666363	          0.01968002	          0.01855788	          0.03840601	          0.03801543	          0.03307647	          0.01132582	          0.00549483	          0.00596763	
          2.32400000	          0.00511600	          0.00266635	          0.00423641	          0.00399121	          0.00373122	          0.00590994	          0.00430647	          0.00347120	          0.02173553	          0.11046145	          0.03434132	          0.02014095	          0.02005981	          0.02833727	          0.03822646	          0.03713816	          0.01997619	          0.01906295	          0.03950927	          0.03888307	          0.03369722	          0.01135690	          0.00547428	          0.00598099	
          2.32500000	          0.00510525	          0.00268992	          0.00423204	          0.00398486	          0.00373674	          0.00587059	          0.00430449	          0.00352477	          0.02185795	          0.11127611	          0.03417113	          0.02022967	          0.02020767	          0.02881392	          0.03846889	          0.03763839	          0.02027726	          0.01958012	          0.04060122	          0.03974888	          0.03430992	          0.01138763	          0.00545165	          0.00599439	
